<svg width="900" height="700" viewBox="0 0 900 700" fill="none" xmlns="http://www.w3.org/2000/svg">
  <path d="M-40 150C80 96 164 95 260 150C356 205 445 202 548 142C646 85 742 98 940 172" stroke="#0f172a" stroke-opacity=".08" stroke-width="2"/>
  <path d="M-30 488H110L150 404L208 560L270 326L328 488H430L468 420L514 488H612L660 356L722 560L780 488H930" stroke="#0f172a" stroke-opacity=".10" stroke-width="3" stroke-linecap="round" stroke-linejoin="round"/>
  <path d="M615 120c-34 0-62 28-62 62v76c0 46 38 84 84 84h82c40 0 72-32 72-72v-46" stroke="#0f172a" stroke-opacity=".06" stroke-width="18" stroke-linecap="round"/>
  <path d="M130 120v126M162 120v126M194 120v126M226 120v126M130 246c0 44 34 80 76 84l-18 122" stroke="#0f172a" stroke-opacity=".055" stroke-width="16" stroke-linecap="round"/>
</svg>
