<svg width="640" height="420" viewBox="0 0 640 420" fill="none" xmlns="http://www.w3.org/2000/svg">
  <rect width="640" height="420" fill="transparent"/>
  <g fill="#050505">
    <path d="M216 70c-4.4 0-8 3.6-8 8v76c0 20 11.2 37.4 27.6 46.2L226 260c-2 12.6 7.8 24 20.6 24h92.8c11 0 20.8-6.8 24.6-17.2l11.4-31.6 28.2 45.8c6.4 10.4 21.8 9.8 27.4-1l30.4-58.4 18.8 50.6c2.2 6 8 10 14.4 10H546c8.8 0 16-7.2 16-16s-7.2-16-16-16h-40.6l-27.8-74.8c-4.8-13-22.8-14-29-1.6L414 240.2l-30.4-49.4c-7-11.4-24-9.8-28.8 2.8L328.2 252H260l8.8-54.8c16-9 26.8-26.2 26.8-45.2V78c0-4.4-3.6-8-8-8s-8 3.6-8 8v74h-16V78c0-4.4-3.6-8-8-8s-8 3.6-8 8v74h-15.6V78c0-4.4-3.6-8-8-8Zm167.2 18.4c-24.8-12-57.6 8.6-73.2 46-15.8 37.4-8.4 77.4 16.4 89.4 24.8 12 57.6-8.6 73.2-46 15.8-37.4 8.4-77.4-16.4-89.4Z"/>
    <path d="M299.2 146.4c-7.8 12-14.2 26-18.4 40.6l-23.6 42.4c-4.8 8.6-1.8 19.4 6.8 24.2l30.8 17.4c8.6 4.8 19.4 1.8 24.2-6.8l12.2-21.8c-10.8-3.4-20.2-10.2-27.4-20-15.2-20.4-17-49.4-4.6-76Z"/>
  </g>
  <text x="320" y="350" text-anchor="middle" fill="#050505" font-family="Arial, Helvetica, sans-serif" font-size="78" font-weight="800">Dee</text>
  <text x="320" y="392" text-anchor="middle" fill="#050505" font-family="Arial, Helvetica, sans-serif" font-size="28" font-weight="800" letter-spacing="1">DEE MEAL MONITOR SYSTEM</text>
</svg>
