<svg width="512" height="512" viewBox="0 0 512 512" fill="none" xmlns="http://www.w3.org/2000/svg">
  <rect width="512" height="512" rx="104" fill="#050505"/>
  <path fill="#fff" d="M154 76c-6.6 0-12 5.4-12 12v88c0 25.2 14 47.2 34.6 58.2L164.8 318c-2.4 16.2 10.2 30.8 26.6 30.8h95.8c15 0 28.4-9.2 33.6-23.2l10.8-29.8 23.6 38.2c8.8 14.2 30 13.2 37.8-1.6l26.4-51 15.6 42c3.4 9 12 15 21.6 15H496v-44h-24l-27.4-73.6c-7.4-20-35.2-21.6-44.8-2.6l-27 52.2-26-42.2c-10.2-16.6-35-14.2-42 4l-26.4 72.6h-66.6l10.2-72.2c20.2-11.2 34-33 34-57.8V88c0-6.6-5.4-12-12-12s-12 5.4-12 12v86h-18V88c0-6.6-5.4-12-12-12s-12 5.4-12 12v86h-18V88c0-6.6-5.4-12-12-12Zm208 29.2c-32.4-15.6-74.2 10.6-93.4 58.6-19.2 48-8.4 99.4 24 115 32.4 15.6 74.2-10.6 93.4-58.6 19.2-48 8.4-99.4-24-115Z"/>
</svg>
